# xmcd CD database file generated by OrangeCD 6.4
#
# Track frame offsets:
#	150
#	30588
#	86903
#	89233
#	96120
#	99368
#	166777
#	192396
#	210363
#	227503
#	248129
#
# Disc length: 3757 seconds
#
# Revision: 0
# Processed by: cddbd v1.5.2PL0 Copyright (c) Steve Scherf et al.
# Submitted via: OrangeCD 6.4
#
DISCID=850eab0b
DTITLE=Jimi Hendrix - Studio Sessions Volume. 1
DYEAR=2008
DGENRE=Blues Rock
TTITLE0=JS7 Jam 2
TTITLE1=JS8 Jam 3
TTITLE2=Sunshine Of Your Love
TTITLE3=JS9 Jam 4
TTITLE4=Sunshine Of Your Love
TTITLE5=JS10 Jam 5
TTITLE6=JS11 Jam 6
TTITLE7=JS12 Jam 7
TTITLE8=JS2 Izabella
TTITLE9=Calling All Devil's Children
TTITLE10=Calling All Devil's Children
EXTD=
EXTT0=
EXTT1=
EXTT2=
EXTT3=
EXTT4=
EXTT5=
EXTT6=
EXTT7=
EXTT8=
EXTT9=
EXTT10=
PLAYORDER=
